<svg width="59" height="70" viewBox="0 0 59 70" fill="none" xmlns="http://www.w3.org/2000/svg">
<path d="M58.3181 17.4265C58.3123 17.3243 58.2923 17.2234 58.2586 17.1267C58.2458 17.0893 58.2365 17.0532 58.2201 17.017C58.1634 16.8901 58.0843 16.7743 57.9868 16.6752L41.6535 0.341833C41.5543 0.244271 41.4385 0.165229 41.3116 0.1085C41.2755 0.0921667 41.2393 0.0828333 41.2031 0.07C41.1056 0.0364583 41.0039 0.0160417 40.901 0.00933333C40.8811 0.0128333 40.859 0 40.8333 0H8.16666C7.52237 0 6.99999 0.522375 6.99999 1.16667V4.66667H1.16667C0.522375 4.66667 0 5.18904 0 5.83333V68.8333C0 69.4776 0.522375 70 1.16667 70H50.1666C50.8109 70 51.3333 69.4776 51.3333 68.8333V63H57.1666C57.8109 63 58.3333 62.4776 58.3333 61.8333V17.5C58.3333 17.4743 58.3204 17.4522 58.3181 17.4265ZM42 3.983L54.3503 16.3333H42V3.983ZM49 67.6667H2.33333V7H6.99999V61.8333C6.99999 62.4776 7.52237 63 8.16666 63H49V67.6667ZM56 60.6667H9.33333V2.33333H39.6666V17.5C39.6666 18.1443 40.189 18.6667 40.8333 18.6667H56V60.6667Z" fill="#222D2F"/>
</svg>
