<svg width="62" height="70" viewBox="0 0 62 70" fill="none" xmlns="http://www.w3.org/2000/svg">
<path d="M54.5433 23.9453C54.5433 10.7207 43.8224 0 30.5975 0C17.3726 0 6.65163 10.7207 6.65163 23.9453C3.23269 24.371 0 26.6059 0 31.794V44.2987C0 50.152 4.0974 52.2805 7.98195 52.2805H11.8399C12.5746 52.2805 13.1702 51.6849 13.1702 50.9502V25.1957C13.1702 24.4611 12.5746 23.8655 11.8399 23.8655H9.31228C9.31228 12.1103 18.8421 2.58077 30.5975 2.58077C42.3529 2.58077 51.8827 12.1103 51.8827 23.8655H49.3551C48.6204 23.8655 48.0247 24.4611 48.0247 25.1957V50.9103C48.0247 51.645 48.6204 52.2406 49.3551 52.2406H51.8827C51.5102 61.3797 47.1201 63.5215 38.3533 63.9073V63.016C38.3533 61.5465 37.1621 60.3554 35.6926 60.3554H27.3249C25.8554 60.3554 24.6642 61.5465 24.6642 63.016V67.3394C24.6642 68.8089 25.8554 70 27.3249 70H35.7192C37.1887 70 38.3799 68.8089 38.3799 67.3394V66.5678C46.8142 66.1821 54.1043 64.4394 54.5433 52.1608C57.9623 51.7351 61.195 49.5002 61.195 44.312V31.8073C61.195 26.5926 57.9756 24.371 54.5433 23.9453ZM10.5096 26.4329V49.58H7.91544C5.94655 49.58 2.59413 48.8883 2.59413 44.2588V31.7541C2.59413 27.1646 5.90664 26.4329 7.91544 26.4329H10.5096ZM35.7192 65.3307V67.3527H27.3249V63.0293H35.7192V65.3307ZM58.5343 44.2987C58.5343 48.8883 55.2218 49.6199 53.213 49.6199H50.6854V26.526H53.2795C55.2484 26.526 58.6008 27.2178 58.6008 31.8472L58.5343 44.2987Z" fill="#222D2F"/>
</svg>
