<svg width="22" height="18" viewBox="0 0 22 18" fill="none" xmlns="http://www.w3.org/2000/svg">
<path class="icons-color" d="M3.23322 6.92922e-09H18.6311C19.4557 -5.39886e-05 20.2491 0.315461 20.8486 0.881821C21.448 1.44818 21.808 2.22245 21.8547 3.04579L21.8596 3.22858V14.6528C21.8597 15.4775 21.5442 16.2709 20.9778 16.8703C20.4115 17.4697 19.6372 17.8297 18.8138 17.8764L18.6311 17.8814H3.23322C2.40855 17.8814 1.61513 17.5659 1.0157 16.9995C0.416275 16.4332 0.0562946 15.6589 0.00960584 14.8356L0.00463868 14.6528V3.22858C0.00458468 2.40391 0.3201 1.61049 0.88646 1.01106C1.45282 0.411636 2.22709 0.051656 3.05043 0.00496717L3.23322 6.92922e-09H18.6311H3.23322ZM20.3695 5.86608L11.2759 10.5947C11.1878 10.6405 11.0914 10.6682 10.9925 10.6762C10.8935 10.6842 10.794 10.6724 10.6997 10.6414L10.5884 10.5947L1.49475 5.86608V14.6528C1.49477 15.0891 1.65883 15.5094 1.95438 15.8304C2.24993 16.1513 2.65535 16.3494 3.09017 16.3853L3.23322 16.3913H18.6311C19.0675 16.3912 19.488 16.227 19.809 15.9313C20.1299 15.6355 20.3279 15.2298 20.3636 14.7948L20.3695 14.6528V5.86608ZM18.6311 1.49011H3.23322C2.79692 1.49013 2.37658 1.6542 2.05564 1.94974C1.7347 2.24529 1.53661 2.65071 1.50071 3.08553L1.49475 3.22858V4.18623L10.9321 9.09367L20.3695 4.18623V3.22858C20.3695 2.79213 20.2053 2.37166 19.9095 2.05069C19.6138 1.72972 19.2081 1.53174 18.7731 1.49607L18.6311 1.49011Z" />
</svg>
