<svg width="60" height="69" viewBox="0 0 60 69" fill="none" xmlns="http://www.w3.org/2000/svg">
<path d="M5.39062 0C2.42578 0 0 2.42578 0 5.39062V63.6094C0 66.5742 2.42578 69 5.39062 69H37.7344C40.6992 69 43.125 66.5742 43.125 63.6094V46.3594H40.9688V56.0625H2.15625V10.7812H40.9688V15.0938H43.125V5.39062C43.125 2.42578 40.6992 0 37.7344 0H5.39062ZM5.39062 2.15625H37.7344C39.5327 2.15625 40.9688 3.59235 40.9688 5.39062V8.625H2.15625V5.39062C2.15625 3.59235 3.59235 2.15625 5.39062 2.15625ZM17.25 4.3125C16.8625 4.30829 16.5004 4.51044 16.3024 4.84735C16.1087 5.18427 16.1087 5.59698 16.3024 5.9339C16.5004 6.27081 16.8625 6.47296 17.25 6.46875H25.875C26.2625 6.47296 26.6246 6.27081 26.8226 5.9339C27.0163 5.59698 27.0163 5.18427 26.8226 4.84735C26.6246 4.51044 26.2625 4.30829 25.875 4.3125H17.25ZM12.8828 4.3125C12.2889 4.3125 11.8046 4.79681 11.8046 5.39062C11.8004 5.98444 12.2847 6.46875 12.8785 6.46875C13.1649 6.47296 13.4387 6.35925 13.6408 6.15711C13.843 5.95496 13.9609 5.677 13.9609 5.39062C13.9609 4.79681 13.4766 4.31671 12.8828 4.3125ZM21.5625 17.25C19.1915 17.25 17.25 19.1915 17.25 21.5625V39.8906C17.25 42.2617 19.1915 44.2031 21.5625 44.2031H26.9531V51.1183L33.8683 44.2031H54.9844C57.3554 44.2031 59.2969 42.2617 59.2969 39.8906V21.5625C59.2969 19.1915 57.3554 17.25 54.9844 17.25H21.5625ZM21.5625 19.4062H54.9844C56.1888 19.4062 57.1406 20.358 57.1406 21.5625V39.8906C57.1406 41.0951 56.1888 42.0469 54.9844 42.0469H32.9755L29.1094 45.913V42.0469H21.5625C20.358 42.0469 19.4062 41.0951 19.4062 39.8906V21.5625C19.4062 20.358 20.358 19.4062 21.5625 19.4062ZM30.1875 29.1094C28.9957 29.1094 28.0312 30.0738 28.0312 31.2656C28.0312 32.4575 28.9957 33.4219 30.1875 33.4219C31.3793 33.4219 32.3438 32.4575 32.3438 31.2656C32.3438 30.0738 31.3793 29.1094 30.1875 29.1094ZM38.8125 29.1094C37.6207 29.1094 36.6562 30.0738 36.6562 31.2656C36.6562 32.4575 37.6207 33.4219 38.8125 33.4219C40.0043 33.4219 40.9688 32.4575 40.9688 31.2656C40.9688 30.0738 40.0043 29.1094 38.8125 29.1094ZM47.4375 29.1094C46.2457 29.1094 45.2812 30.0738 45.2812 31.2656C45.2812 32.4575 46.2457 33.4219 47.4375 33.4219C48.6293 33.4219 49.5938 32.4575 49.5938 31.2656C49.5938 30.0738 48.6293 29.1094 47.4375 29.1094ZM2.15625 58.2188H40.9688V63.6094C40.9688 65.4077 39.5327 66.8438 37.7344 66.8438H5.39062C3.59235 66.8438 2.15625 65.4077 2.15625 63.6094V58.2188ZM21.5625 60.375C20.3707 60.375 19.4062 61.3394 19.4062 62.5312C19.4062 63.7231 20.3707 64.6875 21.5625 64.6875C22.7543 64.6875 23.7188 63.7231 23.7188 62.5312C23.7188 61.3394 22.7543 60.375 21.5625 60.375Z" fill="black"/>
</svg>
