<svg width="21" height="20" viewBox="0 0 21 20" fill="none" xmlns="http://www.w3.org/2000/svg">
<path class="icons-color" d="M19.0894 14.5114C18.2598 13.6591 15.9019 12.0625 14.3564 12.0625C13.9985 12.0625 13.686 12.142 13.4303 12.3068C12.6746 12.7898 12.0723 13.1648 11.7825 13.1648C11.6235 13.1648 11.453 13.0227 11.078 12.6989L11.0155 12.642C9.97572 11.7386 9.75413 11.5057 9.35073 11.0852L9.24845 10.9773C9.17459 10.9034 9.11209 10.8352 9.04959 10.7727C8.69732 10.4091 8.44163 10.1477 7.53823 9.125L7.49845 9.07954C7.06663 8.59091 6.78254 8.27273 6.7655 8.03977C6.74845 7.8125 6.94732 7.44318 7.453 6.75568C8.06663 5.92614 8.08936 4.90341 7.52686 3.71591C7.078 2.77841 6.34504 1.88068 5.69732 1.09091L5.6405 1.02273C5.08368 0.340909 4.43595 0 3.71436 0C2.91322 0 2.24845 0.431818 1.89618 0.659091C1.86777 0.676136 1.83936 0.698864 1.81095 0.715909C1.02118 1.21591 0.447315 1.90341 0.231406 2.60227C-0.0924576 3.65341 -0.308366 5.01705 1.24277 7.85227C2.58368 10.3068 3.79959 11.9545 5.73141 13.9375C7.54959 15.8011 8.35641 16.4034 10.1632 17.7102C12.1746 19.1648 14.1064 20 15.4587 20C16.7144 20 17.703 20 19.1121 18.3011C20.5894 16.517 19.9757 15.4261 19.0894 14.5114ZM18.436 17.6875C17.2996 19.0625 16.6462 19.0625 15.4644 19.0625C14.311 19.0625 12.5212 18.267 10.6803 16.9432C8.91891 15.6705 8.13482 15.0852 6.36777 13.2727C4.49845 11.358 3.32232 9.76136 2.02686 7.39205C0.657542 4.88636 0.810951 3.78977 1.08936 2.88636C1.23709 2.40341 1.68027 1.88636 2.28254 1.51136C2.31095 1.49432 2.33936 1.47159 2.37345 1.45455C2.67459 1.26136 3.17459 0.9375 3.72004 0.9375C4.17459 0.9375 4.578 1.16477 4.96436 1.63636L5.02118 1.70455C6.47004 3.47727 7.60072 5.04545 6.74845 6.20455C6.14618 7.01705 5.828 7.56818 5.87913 8.13636C5.92459 8.6875 6.29391 9.10227 6.85072 9.72727L6.8905 9.77273C7.80527 10.8068 8.06663 11.0795 8.43027 11.4489C8.49277 11.5114 8.55527 11.5795 8.62913 11.6534L8.73141 11.7614C9.15186 12.1989 9.38482 12.4375 10.453 13.375L10.5155 13.4318C10.97 13.8295 11.3053 14.1193 11.7939 14.1193C12.2996 14.1193 12.8564 13.8011 13.9132 13.125C14.0212 13.0568 14.1746 13.017 14.3678 13.017C15.6007 13.017 17.7257 14.4261 18.47 15.1932C19.1519 15.8864 19.4928 16.4091 18.436 17.6875Z"/>
</svg>
