<svg width="24" height="22" viewBox="0 0 24 22" fill="none" xmlns="http://www.w3.org/2000/svg">
<path d="M7.64375 12.1256L22.4405 1.43902M7.64375 12.1256L17.4187 20.7276C17.5318 20.8271 17.6688 20.8956 17.8163 20.9262C17.9638 20.9569 18.1168 20.9486 18.2601 20.9024C18.4035 20.8561 18.5325 20.7734 18.6343 20.6624C18.7361 20.5513 18.8073 20.4157 18.8409 20.2688L22.9299 2.426C22.9653 2.27173 22.9579 2.11074 22.9085 1.96038C22.8591 1.81001 22.7696 1.67597 22.6497 1.5727C22.5298 1.46943 22.3839 1.40085 22.2279 1.37435C22.0719 1.34784 21.9115 1.36441 21.7642 1.42228L1.70099 9.30432C1.52616 9.37303 1.37828 9.4965 1.27947 9.65625C1.18065 9.816 1.13622 10.0035 1.15281 10.1906C1.16941 10.3777 1.24614 10.5544 1.37152 10.6942C1.49691 10.8341 1.66421 10.9296 1.8484 10.9665L7.64375 12.1256Z" stroke="white" stroke-width="2" stroke-linecap="round" stroke-linejoin="round"/>
</svg>
