<svg width="58" height="57" viewBox="0 0 58 57" fill="none" xmlns="http://www.w3.org/2000/svg">
<path d="M2.60313 41.3574C4.96733 38.9284 11.6875 34.3781 16.092 34.3781C17.1122 34.3781 18.0028 34.6048 18.7315 35.0744C20.8852 36.4509 22.6017 37.5196 23.4276 37.5196C23.881 37.5196 24.3668 37.1148 25.4355 36.1918L25.6136 36.0298C28.577 33.4551 29.2085 32.7912 30.3582 31.5929L30.6497 31.2852C30.8602 31.0747 31.0384 30.8804 31.2165 30.7023C32.2205 29.6659 32.9492 28.921 35.5239 26.0063L35.6372 25.8767C36.8679 24.4841 37.6776 23.5773 37.7261 22.9134C37.7747 22.2656 37.208 21.2131 35.7668 19.2537C34.0179 16.8895 33.9531 13.9747 35.5563 10.5903C36.8355 7.91847 38.9244 5.35994 40.7705 3.10909L40.9324 2.91477C42.5193 0.971591 44.3653 0 46.4219 0C48.7051 0 50.5997 1.23068 51.6037 1.87841C51.6847 1.92699 51.7656 1.99176 51.8466 2.04034C54.0975 3.46534 55.733 5.42472 56.3483 7.41648C57.2713 10.4122 57.8867 14.2986 53.4659 22.379C49.6443 29.3744 46.179 34.0704 40.6733 39.7219C35.4915 45.0332 33.1921 46.7497 28.0426 50.4741C22.3102 54.6196 16.8045 57 12.9506 57C9.37188 57 6.55426 57 2.53835 52.1582C-1.67188 47.0736 0.0769882 43.9645 2.60313 41.3574ZM4.46534 50.4094C7.70398 54.3281 9.56619 54.3281 12.9344 54.3281C16.2216 54.3281 21.3224 52.0611 26.569 48.2881C31.5889 44.6608 33.8236 42.9929 38.8597 37.8273C44.1872 32.3702 47.5392 27.8199 51.2313 21.0673C55.1338 13.9261 54.6966 10.8009 53.9031 8.22614C53.4821 6.84971 52.219 5.37614 50.5026 4.30739C50.4216 4.25881 50.3406 4.19403 50.2435 4.14545C49.3852 3.59489 47.9602 2.67188 46.4057 2.67188C45.1102 2.67188 43.9605 3.3196 42.8594 4.66364L42.6975 4.85795C38.5682 9.91023 35.3457 14.3795 37.7747 17.683C39.4912 19.9986 40.398 21.5693 40.2523 23.1886C40.1227 24.7594 39.0702 25.9415 37.4832 27.7227L37.3699 27.8523C34.7628 30.7994 34.0179 31.5767 32.9815 32.6293C32.8034 32.8074 32.6253 33.0017 32.4148 33.2122L32.1233 33.5199C30.925 34.7668 30.2611 35.4469 27.2168 38.1187L27.0386 38.2807C25.7432 39.4142 24.7878 40.2401 23.3952 40.2401C21.954 40.2401 20.3671 39.3332 17.3551 37.4062C17.0474 37.2119 16.6102 37.0986 16.0597 37.0986C12.5457 37.0986 6.48949 41.1145 4.36818 43.3006C2.425 45.2761 1.45341 46.7659 4.46534 50.4094Z" fill="white"/>
</svg>
