<svg width="60" height="58" viewBox="0 0 60 58" fill="none" xmlns="http://www.w3.org/2000/svg">
<path d="M54.07 0H15.93C12.66 0 10 2.66 10 5.93V14H5.93C2.66 14 0 16.66 0 19.929V41.07C0 44.34 2.66 47 5.93 47H12V57C12 57.413 12.254 57.784 12.64 57.933C12.757 57.978 12.879 58 13 58C13.276 58 13.547 57.885 13.74 57.673L23.442 47H44.07C47.34 47 50 44.34 50 41.07V33H54.07C57.34 33 60 30.34 60 27.07V5.93C60 2.66 57.34 0 54.07 0ZM48 41.07C48 43.237 46.237 45 44.07 45H23C22.718 45 22.449 45.119 22.26 45.327L14 54.414V46C14 45.448 13.553 45 13 45H5.93C3.763 45 2 43.237 2 41.07V19.929C2 17.763 3.763 16 5.93 16H11H44.07C44.883 16 45.638 16.248 46.266 16.672C47.311 17.379 48 18.575 48 19.93V32V41.07ZM58 27.07C58 29.237 56.237 31 54.07 31H50V19.93C50 17.274 48.244 15.02 45.832 14.268C45.646 14.21 45.457 14.161 45.264 14.122C44.878 14.042 44.479 14 44.07 14H12V5.93C12 3.763 13.763 2 15.93 2H54.07C56.237 2 58 3.763 58 5.93V27.07Z" fill="white"/>
<path d="M12 26.015H26C26.553 26.015 27 25.567 27 25.015C27 24.463 26.553 24.015 26 24.015H12C11.447 24.015 11 24.463 11 25.015C11 25.567 11.447 26.015 12 26.015Z" fill="white"/>
<path d="M39 30.015H12C11.447 30.015 11 30.463 11 31.015C11 31.567 11.447 32.015 12 32.015H39C39.553 32.015 40 31.567 40 31.015C40 30.463 39.553 30.015 39 30.015Z" fill="white"/>
<path d="M39 36.015H12C11.447 36.015 11 36.463 11 37.015C11 37.567 11.447 38.015 12 38.015H39C39.553 38.015 40 37.567 40 37.015C40 36.463 39.553 36.015 39 36.015Z" fill="white"/>
</svg>
