<svg width="58" height="58" viewBox="0 0 58 58" fill="none" xmlns="http://www.w3.org/2000/svg">
<path d="M52.5528 34.4036C49.5316 32.67 49.5316 32.67 49.6989 29.9048C49.8129 27.4387 49.818 27.2942 53.0217 25.7228C57.7714 23.3327 58.6483 22.4482 57.1479 18.5171C56.5193 16.8544 55.9237 15.283 53.7161 15.283C52.7479 15.283 51.5035 15.5694 49.4023 16.1346C48.135 16.4717 47.286 16.6669 46.7056 16.6669C46.0035 16.6669 45.6132 16.3931 44.3991 15.0296C42.6123 13.0298 42.5768 12.9918 43.8441 9.25079C45.4028 4.61511 45.3749 3.34784 41.5148 1.55338C40.5922 1.13518 39.7609 0.787945 38.9473 0.787945C37.1326 0.787945 36.096 2.4278 34.4156 5.32985C32.8188 8.0925 32.5729 8.19895 31.1384 8.19895C30.7937 8.19895 30.4034 8.18121 29.9421 8.15587C27.405 8.03928 27.3569 8.03674 25.679 4.68101C23.5702 0.407763 22.858 -0.953288 18.6659 0.653614C14.6715 2.15406 14.8159 3.3377 16.0857 8.09757C17.0286 11.6789 16.9906 11.7144 14.9756 13.519C13.7463 14.6392 13.3408 14.8825 12.6996 14.8825C12.0178 14.8825 10.9837 14.5733 9.41988 14.036C7.49616 13.3948 6.18327 13.0222 5.17452 13.0222C3.13928 13.0222 2.43467 14.5556 1.74528 16.0459C0.0293912 19.8756 0.825239 20.788 5.2835 23.3581C8.36044 25.1399 8.36044 25.1399 8.19316 27.7175C8.05123 30.5156 8.05123 30.5156 4.66 32.2036C0.0091147 34.5151 -0.779128 35.2907 0.632613 38.9937C1.32708 40.8718 1.92777 42.4939 4.16577 42.4939C5.13143 42.4939 6.36322 42.21 8.29454 41.6879C9.63025 41.3407 10.5249 41.1379 11.151 41.1379C11.8936 41.1379 12.2662 41.3939 13.4904 42.7321C15.2417 44.7217 15.3102 44.7978 14.1012 48.3309C12.4512 53.2429 12.4537 54.4595 16.253 56.1652C17.2998 56.6265 18.1641 56.9763 18.9853 56.9763C20.7696 56.9763 21.7251 55.4682 23.4004 52.5763C25.1214 49.5931 25.3292 49.5931 26.6827 49.5931C27.0172 49.5931 27.3949 49.6083 27.8308 49.6312C30.525 49.7782 30.525 49.7782 32.1547 53.035C33.6628 56.0765 34.6133 57.8 36.6257 57.8C37.3607 57.8 38.1642 57.5592 39.2413 57.1613C43.0381 55.6735 43.0964 54.538 41.7201 49.3904C40.8457 46.1284 40.8837 46.0929 42.8657 44.3061C44.0975 43.1757 44.503 42.9324 45.1443 42.9324C45.8235 42.9324 46.845 43.2314 48.495 43.784C50.4313 44.4277 51.6631 44.78 52.6465 44.78C54.5855 44.78 55.3306 43.4671 56.1696 41.6144C57.85 37.9089 57.0465 37.0015 52.5528 34.4036ZM54.3219 40.7704C53.4627 42.6637 53.1889 42.7448 52.6465 42.7448C51.9495 42.7448 50.7887 42.4026 49.1387 41.8526C47.2023 41.2038 46.1125 40.8946 45.1443 40.8946C43.6819 40.8946 42.7897 41.6169 41.4996 42.798C38.9194 45.1247 38.7065 45.989 39.7558 49.9074C40.9369 54.3125 40.9369 54.3125 38.5215 55.2604C37.6953 55.562 37.0566 55.7648 36.6231 55.7648C35.9464 55.7648 35.4015 55.0171 33.9669 52.1226C32.0838 48.3487 31.5718 47.7936 27.9322 47.5985C27.4557 47.5731 27.0426 47.5554 26.6801 47.5554C24.0797 47.5554 23.3523 48.5844 21.644 51.5549C20.2855 53.8968 19.5809 54.941 18.9802 54.941C18.5569 54.941 17.8346 54.6394 17.0742 54.3023C14.6005 53.1922 14.6005 53.1922 16.0173 48.9722C17.4316 44.8535 17.3175 44.0019 14.9959 41.3685C13.7058 39.9568 12.806 39.1001 11.1484 39.1001C10.3019 39.1001 9.31089 39.3156 7.77243 39.7186C6.08695 40.1722 4.89318 40.4536 4.16323 40.4561C3.48144 40.4561 3.31163 40.3826 2.52845 38.2713C1.6439 35.9548 1.6439 35.9548 5.55723 34.0108C9.45283 32.0718 10.0256 31.5497 10.2132 27.8265C10.4312 24.4378 9.99015 23.7408 6.29225 21.5966C2.46509 19.3966 2.46509 19.3966 3.59296 16.8874C4.39641 15.1411 4.62706 15.0498 5.17452 15.0498C5.90193 15.0498 7.14132 15.4148 8.7685 15.9547C10.6111 16.5858 11.7238 16.9076 12.6996 16.9076C14.162 16.9076 15.0542 16.1929 16.3367 15.0194C19.0866 12.5609 19.117 11.6409 18.0475 7.58053C16.95 3.46442 16.95 3.46442 19.3832 2.54945C20.2753 2.20729 20.909 1.99692 21.3272 1.99692C21.9355 1.99692 22.4576 2.73194 23.8643 5.57823C25.8235 9.50931 26.4976 10.0238 29.8382 10.1759C30.3324 10.2038 30.7582 10.2215 31.1359 10.2215C33.7084 10.2215 34.4713 9.2736 36.1669 6.34113C37.5533 3.95106 38.3213 2.81051 38.9448 2.81051C39.3123 2.81051 39.88 3.03355 40.6657 3.39092C43.2637 4.60244 43.2637 4.60243 41.9203 8.59941C40.501 12.7865 40.4503 13.6584 42.8835 16.3779C44.1685 17.815 45.0657 18.6894 46.703 18.6894C47.509 18.6894 48.4544 18.4791 49.9244 18.0913C51.7721 17.5945 52.9836 17.3056 53.7161 17.3056C54.3193 17.3056 54.5221 17.3056 55.2521 19.2344C56.2431 21.8272 56.2431 21.8272 52.1219 23.903C48.4088 25.7253 47.8284 26.4958 47.6763 29.7933C47.4583 33.3518 47.8917 34.0691 51.5415 36.1601C55.4016 38.393 55.4016 38.393 54.3219 40.7704Z" fill="white"/>
<path d="M28.9131 22.6409C25.4737 22.6409 22.6705 25.4415 22.6705 28.8835C22.6705 32.3254 25.4712 35.126 28.9131 35.126C32.355 35.126 35.1557 32.3254 35.1557 28.8835C35.1557 25.4415 32.3525 22.6409 28.9131 22.6409ZM28.9131 33.0959C26.5889 33.0959 24.7007 31.2076 24.7007 28.8835C24.7007 26.5593 26.5889 24.671 28.9131 24.671C31.2373 24.671 33.1255 26.5593 33.1255 28.8835C33.1255 31.2076 31.2373 33.0959 28.9131 33.0959Z" fill="white"/>
</svg>
