<svg width="61" height="53" viewBox="0 0 61 53" fill="none" xmlns="http://www.w3.org/2000/svg">
<path d="M53.6522 1.84214H7.23589C6.72746 1.84214 6.31482 1.4295 6.31482 0.921069C6.31482 0.412639 6.72746 0 7.23589 0H53.6522C54.1606 0 54.5733 0.412639 54.5733 0.921069C54.5733 1.4295 54.1606 1.84214 53.6522 1.84214Z" fill="white"/>
<path d="M56.2847 52.4435H4.60534C2.06504 52.4435 0 50.3766 0 47.8381V10.5238C0 7.98533 2.06504 5.91846 4.60534 5.91846H56.2847C58.825 5.91846 60.89 7.98533 60.89 10.5238V47.84C60.89 50.3784 58.825 52.4435 56.2847 52.4435ZM4.60534 7.76059C3.0819 7.76059 1.84214 9.00035 1.84214 10.5238V47.84C1.84214 49.3634 3.0819 50.6032 4.60534 50.6032H56.2847C57.8081 50.6032 59.0479 49.3634 59.0479 47.84V10.5238C59.0479 9.00035 57.8081 7.76059 56.2847 7.76059H4.60534Z" fill="white"/>
<path d="M46.2689 7.76059H14.621C14.1126 7.76059 13.7 7.34796 13.7 6.83953C13.7 6.3311 14.1126 5.91846 14.621 5.91846H46.2708C46.7792 5.91846 47.1919 6.3311 47.1919 6.83953C47.1919 7.34796 46.7792 7.76059 46.2689 7.76059Z" fill="white"/>
<path d="M31.4839 43.3723H9.81304C9.30461 43.3723 8.89197 42.9597 8.89197 42.4512V39.9865C8.89197 38.4501 9.78909 37.0298 11.1799 36.3722L16.0579 33.3732C14.4829 32.0966 13.5047 30.201 13.4255 28.1489L13.2394 23.293C13.2394 19.5811 16.2716 16.5913 20.0019 16.5913H21.2877C25.0162 16.5913 28.052 19.5829 28.052 23.258L27.8641 28.1489C27.7849 30.2047 26.8068 32.1021 25.2262 33.3769L30.1558 36.3943C31.5208 37.0611 32.4013 38.4667 32.4013 39.9883V42.4512C32.405 42.9597 31.9924 43.3723 31.4839 43.3723ZM10.7341 41.5302H30.5629V39.9883C30.5629 39.1575 30.0765 38.393 29.325 38.0375C29.2955 38.0227 29.266 38.008 29.2384 37.9896L23.0212 34.1837C22.7356 34.0087 22.5662 33.6937 22.5809 33.3584C22.5975 33.0232 22.7909 32.7229 23.0893 32.5737C24.8283 31.706 25.9538 29.9836 26.0257 28.077L26.2136 23.2212C26.2136 20.5961 24.0067 18.4316 21.2914 18.4316H20.0056C17.2921 18.4316 15.0852 20.5961 15.0852 23.2562L15.2713 28.077C15.3431 29.9781 16.4632 31.7005 18.1984 32.57C18.4969 32.7192 18.6921 33.0195 18.705 33.3529C18.7179 33.6882 18.5503 34.0032 18.2666 34.1782L12.0586 37.9877C11.2204 38.3912 10.7359 39.1556 10.7359 39.9846V41.5302H10.7341Z" fill="white"/>
<path d="M51.2078 22.7229H39.8289C39.3205 22.7229 38.9078 22.3102 38.9078 21.8018C38.9078 21.2934 39.3205 20.8807 39.8289 20.8807H51.2078C51.7162 20.8807 52.1289 21.2934 52.1289 21.8018C52.1289 22.3102 51.7162 22.7229 51.2078 22.7229Z" fill="white"/>
<path d="M51.2078 30.8995H39.8289C39.3205 30.8995 38.9078 30.4869 38.9078 29.9784C38.9078 29.47 39.3205 29.0574 39.8289 29.0574H51.2078C51.7162 29.0574 52.1289 29.47 52.1289 29.9784C52.1289 30.4869 51.7162 30.8995 51.2078 30.8995Z" fill="white"/>
<path d="M51.2078 39.0805H39.8289C39.3205 39.0805 38.9078 38.6679 38.9078 38.1595C38.9078 37.651 39.3205 37.2384 39.8289 37.2384H51.2078C51.7162 37.2384 52.1289 37.651 52.1289 38.1595C52.1289 38.6679 51.7162 39.0805 51.2078 39.0805Z" fill="white"/>
</svg>
